<?xml version="1.0" encoding="UTF-8" standalone="no"?>
<svg width="140px" height="116px" viewBox="0 0 140 116" version="1.1" xmlns="http://www.w3.org/2000/svg" xmlns:xlink="http://www.w3.org/1999/xlink">
    <!-- Generator: Sketch 39.1 (31720) - http://www.bohemiancoding.com/sketch -->
    <title>Group 6</title>
    <desc>Created with Sketch.</desc>
    <defs></defs>
    <g id="artworks" stroke="none" stroke-width="1" fill="none" fill-rule="evenodd">
        <g id="Artboard" transform="translate(-170.000000, -192.000000)">
            <g id="Group-6" transform="translate(170.000000, 192.000000)">
                <path d="M12.0798906,12.1265177 C10.8194199,10.8658041 10.1252207,9.18988038 10.1252207,7.40752724 C10.1252207,5.62508938 10.8194199,3.94916562 12.0798906,2.68836728 L12.1966354,2.57160002 C13.4557505,1.31224221 15.1309277,0.618671781 16.913361,0.618671781 C18.6959637,0.618671781 20.3719881,1.31241168 21.6325435,2.57202371 L23.3148372,4.25769219 L24.9968768,2.57049844 C26.2558224,1.31241168 27.9320163,0.618671781 29.7151273,0.618671781 C31.495612,0.618671781 33.1691795,1.31046274 34.42821,2.56677003 L34.5469033,2.68836728 C35.8074587,3.94916562 36.5017427,5.62508938 36.5017427,7.40752724 C36.5017427,9.18988038 35.8074587,10.8658041 34.5469033,12.1266025 L23.3142442,23.3631213 L12.0798906,12.1265177 Z" id="Fill-36" fill="#FFFFFF"></path>
                <path d="M0.706383742,96.5020337 C0.706383742,92.4556837 3.99777272,89.1636603 8.04334303,89.1636603 C12.0889981,89.1636603 15.380387,92.4556837 15.380387,96.5020337 C15.380387,100.548384 12.0889981,103.840407 8.04334303,103.840407 C3.99777272,103.840407 0.706383742,100.548384 0.706383742,96.5020337 Z" id="Fill-38" fill="#FD4741"></path>
                <polygon id="Fill-122" fill="#FFFFFF" points="92.5515553 25.2115352 94.1330317 25.2115352 94.1330317 22.4891124 92.5515553 22.4891124"></polygon>
                <polygon id="Fill-123" fill="#FFFFFF" points="84.7001142 28.3555065 85.4908101 26.9859061 87.8506131 28.3487275 87.0599173 29.7183279"></polygon>
                <polygon id="Fill-124" fill="#FFFFFF" points="85.066132 36.7191269 87.4255961 35.3569834 88.2162072 36.726499 85.8567431 38.0886426"></polygon>
                <polygon id="Fill-125" fill="#FFFFFF" points="93.2793886 41.9544185 94.860865 41.9544185 94.860865 39.2305552 93.2793886 39.2305552"></polygon>
                <polygon id="Fill-126" fill="#FFFFFF" points="99.5629255 36.0946932 100.353621 34.7250929 102.712238 36.086728 101.921542 37.4563283"></polygon>
                <polygon id="Fill-127" fill="#FFFFFF" points="99.1969925 27.7163455 101.556796 26.3535241 102.347491 27.7231245 99.9876884 29.0859459"></polygon>
                <polygon id="Fill-129" fill="#FFFFFF" points="95.5429238 107.00025 86.9174514 107.00025 86.9174514 76.8627715 139.010777 76.8627715 139.010777 107.00025 105.185465 107.00025 95.5429238 115.725849"></polygon>
                <polygon id="Fill-130" fill="#282D33" points="97.5553985 88.8334242 128.36712 88.8334242 128.36712 87.2517277 97.5553985 87.2517277"></polygon>
                <polygon id="Fill-131" fill="#282D33" points="97.5553985 97.1988072 128.36712 97.1988072 128.36712 95.617026 97.5553985 95.617026"></polygon>
                <polygon id="Fill-132" fill="#FD4741" points="58.7119592 71.6720514 30.8295315 71.6720514 30.8295315 52.2280142 76.9827687 52.2280142 76.9827687 71.6720514 68.3535686 71.6720514 68.3535686 80.3981588"></polygon>
                <polygon id="Fill-133" fill="#FFFFFF" points="37.9046707 63.0103185 68.717409 63.0103185 68.717409 61.4285373 37.9046707 61.4285373"></polygon>
            </g>
        </g>
    </g>
</svg>