<?xml version="1.0" encoding="UTF-8" standalone="no"?>
<svg width="83px" height="41px" viewBox="0 0 83 41" version="1.1" xmlns="http://www.w3.org/2000/svg" xmlns:xlink="http://www.w3.org/1999/xlink">
    <!-- Generator: Sketch 39.1 (31720) - http://www.bohemiancoding.com/sketch -->
    <title>Group 5</title>
    <desc>Created with Sketch.</desc>
    <defs></defs>
    <g id="artworks" stroke="none" stroke-width="1" fill="none" fill-rule="evenodd">
        <g id="Artboard" transform="translate(-199.000000, -220.000000)">
            <g id="Group-5" transform="translate(199.000000, 220.000000)">
                <path d="M2.78093491,40.0600204 C1.491786,40.0600204 0.443182689,39.0124128 0.443182689,37.7246128 L0.443182689,2.8398699 C0.443182689,1.55162229 1.491786,0.503477524 2.78093491,0.503477524 L75.5635333,0.503477524 C76.8491895,0.503477524 77.8951957,1.55162229 77.8951957,2.8398699 L77.8951957,7.9711061 L82.4704878,13.9922985 L77.8951957,19.1873651 L77.8951957,37.7246128 C77.8951957,39.0124128 76.8491895,40.0600204 75.5635333,40.0600204 L2.78093491,40.0600204 Z" id="Fill-60" fill="#FD4741"></path>
                <polygon id="Fill-61" fill="#282D33" points="32.0904139 14.706779 66.6481125 14.706779 66.6481125 13.0357276 32.0904139 13.0357276"></polygon>
                <polygon id="Fill-62" fill="#282D33" points="12.0738134 14.706779 23.65072 14.706779 23.65072 13.0357276 12.0738134 13.0357276"></polygon>
                <polygon id="Fill-63" fill="#282D33" points="53.2173212 26.1931314 66.6482021 26.1931314 66.6482021 24.52208 53.2173212 24.52208"></polygon>
                <polygon id="Fill-64" fill="#282D33" points="13.5572974 26.1931314 44.0387959 26.1931314 44.0387959 24.52208 13.5572974 24.52208"></polygon>
            </g>
        </g>
    </g>
</svg>