<?xml version="1.0" encoding="UTF-8" standalone="no"?>
<svg width="77px" height="102px" viewBox="0 0 77 102" version="1.1" xmlns="http://www.w3.org/2000/svg" xmlns:xlink="http://www.w3.org/1999/xlink">
    <!-- Generator: Sketch 39.1 (31720) - http://www.bohemiancoding.com/sketch -->
    <title>Group 12</title>
    <desc>Created with Sketch.</desc>
    <defs></defs>
    <g id="artworks" stroke="none" stroke-width="1" fill="none" fill-rule="evenodd">
        <g id="Artboard" transform="translate(-202.000000, -189.000000)">
            <g id="Group-12" transform="translate(202.000000, 189.000000)">
                <polygon id="Fill-14" fill="#282D33" points="64.3140426 3.81813714 65.9857719 3.81813714 65.9857719 0.296270476 64.3140426 0.296270476"></polygon>
                <polygon id="Fill-15" fill="#282D33" points="54.8441848 7.22493886 55.6799151 5.77796552 58.7305278 7.53889886 57.8947079 8.98596171"></polygon>
                <polygon id="Fill-16" fill="#282D33" points="55.2744713 17.4421928 58.3264273 15.6826023 59.161262 17.1299337 56.1093956 18.8895242"></polygon>
                <polygon id="Fill-17" fill="#282D33" points="65.1772664 23.6262648 66.8489957 23.6262648 66.8489957 20.1024286 65.1772664 20.1024286"></polygon>
                <polygon id="Fill-18" fill="#282D33" points="72.4331553 16.3813714 73.2680796 14.93404 76.3201251 16.6943467 75.4852008 18.1416781"></polygon>
                <polygon id="Fill-19" fill="#282D33" points="72.0010329 6.79227029 75.0541531 5.03106838 75.8902416 6.47893695 72.8370319 8.24013886"></polygon>
                <path d="M35.8575871,67.102733 C30.9315068,67.102733 26.300601,65.1856701 22.8177943,61.7045368 C19.3350773,58.223493 17.4170709,53.595112 17.4170709,48.6718396 C17.4170709,43.7475825 19.3350773,39.1184853 22.8178839,35.637173 C26.3004218,32.1560396 30.9314173,30.2388872 35.8575871,30.2388872 C40.78313,30.2388872 45.4134986,32.1560396 48.8957679,35.637173 C52.3781267,39.1183958 54.295954,43.7475825 54.295954,48.6718396 C54.295954,53.595112 52.3781267,58.2235825 48.8957679,61.7046263 C45.413409,65.1856701 40.7830405,67.102733 35.8575871,67.102733" id="Fill-20" fill="#FD4741"></path>
                <polygon id="Fill-21" fill="#282D33" points="12.9969603 24.899741 14.6686896 24.899741 14.6686896 21.7598724 12.9969603 21.7598724"></polygon>
                <polygon id="Fill-22" fill="#282D33" points="0.713417477 29.5266895 1.55004333 28.0799848 4.27046546 29.6515752 3.43383961 31.09828"></polygon>
                <polygon id="Fill-23" fill="#282D33" points="0.465214891 42.5960288 3.18778635 41.0255126 4.02378532 42.4734707 1.30121386 44.0438973"></polygon>
                <polygon id="Fill-24" fill="#282D33" points="12.5010925 50.7935181 14.1728217 50.7935181 14.1728217 47.6536495 12.5010925 47.6536495"></polygon>
                <polygon id="Fill-25" fill="#282D33" points="22.8993524 42.9019316 23.7359782 41.4552269 26.4563108 43.0269069 25.6196849 44.4735221"></polygon>
                <polygon id="Fill-26" fill="#282D33" points="23.144931 30.0769476 25.8654427 28.5075952 26.7015312 29.9554638 23.9809299 31.5249057"></polygon>
                <path d="M12.2084167,84.9664034 C8.01212279,84.9664034 4.59809466,88.3789615 4.59809466,92.5735996 C4.59809466,96.7682377 8.01212279,100.180796 12.2084167,100.180796 C16.4048001,100.180796 19.8188283,96.7682377 19.8188283,92.5735996 C19.8188283,88.3789615 16.4048001,84.9664034 12.2084167,84.9664034 M12.2084167,101.851847 C7.09032982,101.851847 2.9263654,97.6896168 2.9263654,92.5735996 C2.9263654,87.457493 7.09032982,83.2952625 12.2084167,83.2952625 C17.3265036,83.2952625 21.490468,87.457493 21.490468,92.5735996 C21.490468,97.6896168 17.3265036,101.851847 12.2084167,101.851847" id="Fill-3" fill="#282D33"></path>
            </g>
        </g>
    </g>
</svg>