<?xml version="1.0" encoding="UTF-8" standalone="no"?>
<svg width="32px" height="27px" viewBox="0 0 32 27" version="1.1" xmlns="http://www.w3.org/2000/svg" xmlns:xlink="http://www.w3.org/1999/xlink">
    <!-- Generator: Sketch 39.1 (31720) - http://www.bohemiancoding.com/sketch -->
    <title>1479749961_right</title>
    <desc>Created with Sketch.</desc>
    <defs></defs>
    <g id="Page-1" stroke="none" stroke-width="1" fill="none" fill-rule="evenodd">
        <g id="1479749961_right" transform="translate(16.000000, 12.629630) scale(-1, 1) translate(-16.000000, -12.629630) translate(0.000000, -1.000000)" fill="#4D4D4D">
            <g id="Group">
                <g id="Group-2" transform="translate(16.000000, 13.629630) scale(-1, 1) translate(-16.000000, -13.629630) ">
                    <path d="M31.9327677,13.7765926 C31.8888081,13.6705724 31.8250236,13.5757576 31.7457239,13.495596 L19.528404,1.28 C19.1913805,0.942976431 18.6466263,0.942976431 18.3096027,1.28 C17.9725791,1.61702357 17.9725791,2.16177778 18.3096027,2.49880135 L29.055569,13.2439057 L1.81613468,13.2439057 C1.3403367,13.2439057 0.954181818,13.6291987 0.954181818,14.1058586 C0.954181818,14.5825185 1.3403367,14.9678114 1.81613468,14.9678114 L29.055569,14.9678114 L18.3113266,25.7137778 C17.974303,26.0508013 17.974303,26.5955556 18.3113266,26.9325791 C18.4794074,27.1006599 18.7000673,27.1851313 18.9207273,27.1851313 C19.1413872,27.1851313 19.3620471,27.1006599 19.5301279,26.9325791 L31.7457239,14.7161212 C31.8250236,14.6359596 31.8888081,14.5411448 31.9327677,14.4351246 C32.0198249,14.2248081 32.0198249,13.987771 31.9327677,13.7765926 L31.9327677,13.7765926 Z" id="Shape"></path>
                </g>
            </g>
        </g>
    </g>
</svg>