<?xml version="1.0" encoding="UTF-8" standalone="no"?>
<svg width="32px" height="32px" viewBox="0 0 32 32" version="1.1" xmlns="http://www.w3.org/2000/svg" xmlns:xlink="http://www.w3.org/1999/xlink">
    <!-- Generator: Sketch 39.1 (31720) - http://www.bohemiancoding.com/sketch -->
    <title>Group</title>
    <desc>Created with Sketch.</desc>
    <defs></defs>
    <g id="Page-1" stroke="none" stroke-width="1" fill="none" fill-rule="evenodd">
        <g id="1480982719_Download" fill="#222222">
            <g id="Download">
                <g id="Group">
                    <path d="M31,22 C30.448,22 30,22.448 30,23 L30,30 L2,30 L2,23 C2,22.448 1.552,22 1,22 C0.448,22 0,22.448 0,23 L0,31 C0,31.552 0.448,32 1,32 L31,32 C31.552,32 32,31.552 32,31 L32,23 C32,22.448 31.552,22 31,22 L31,22 Z" id="Shape"></path>
                    <path d="M16.699,23.707 L23.698,16.807 C24.093,16.416 24.092,15.783 23.698,15.393 C23.304,15.002 22.664,15.002 22.27,15.393 L16.995,20.593 L16.995,1 C16.995,0.448 16.543,0 15.985,0 C15.427,0 14.975,0.448 14.975,1 L14.975,20.593 L9.7,15.393 C9.305,15.002 8.666,15.002 8.272,15.393 C7.877,15.784 7.877,16.417 8.272,16.807 L15.27,23.707 C15.659,24.092 16.31,24.096 16.699,23.707 Z" id="Shape"></path>
                </g>
            </g>
        </g>
    </g>
</svg>