<?xml version="1.0" encoding="UTF-8" standalone="no"?>
<svg width="64px" height="63px" viewBox="0 0 64 63" version="1.1" xmlns="http://www.w3.org/2000/svg" xmlns:xlink="http://www.w3.org/1999/xlink">
    <!-- Generator: Sketch 39.1 (31720) - http://www.bohemiancoding.com/sketch -->
    <title>Shape</title>
    <desc>Created with Sketch.</desc>
    <defs></defs>
    <g id="Page-1" stroke="none" stroke-width="1" fill="none" fill-rule="evenodd">
        <path d="M32,0 C14.328125,0 0,14.328125 0,32 C0,46.140625 9.168,58.1328125 21.88475,62.36325 C23.484375,62.65625 24.068375,61.6679375 24.068375,60.8241875 C24.068375,60.0624375 24.0390625,57.5390625 24.0234375,54.8671875 C15.125,56.80075 13.244125,51.09375 13.244125,51.09375 C11.787125,47.3984375 9.691375,46.4140625 9.691375,46.4140625 C6.7831875,44.4296875 9.912,44.46875 9.912,44.46875 C13.124875,44.691375 14.816375,47.765625 14.816375,47.765625 C17.671875,52.65625 22.3085625,51.2421875 24.128875,50.421875 C24.41975,48.359375 25.247875,46.9453125 26.160125,46.1484375 C19.056625,45.339875 11.584,42.59375 11.584,30.332 C11.584,26.835875 12.8320625,23.984375 14.875,21.744125 C14.5488125,20.931625 13.44725,17.67575 15.191375,13.2715 C15.191375,13.2715 17.875,12.412125 23.992125,16.55275 C26.542875,15.839875 29.27925,15.4883125 31.9999375,15.4765625 C34.7186875,15.4883125 37.4569375,15.84375 40.0116875,16.556625 C46.1171875,12.412125 48.8046875,13.275375 48.8046875,13.275375 C50.5546875,17.6835625 49.453125,20.9355 49.125,21.744125 C51.17575,23.984375 52.4140625,26.8359375 52.4140625,30.332 C52.4140625,42.625 44.9296875,45.332 37.8008125,46.125 C38.9531875,47.1171875 39.9726875,49.0625 39.9726875,52.046875 C39.9726875,56.32425 39.9296875,59.7734375 39.9296875,60.828125 C39.9296875,61.6796875 40.5116875,62.67575 42.1328125,62.36325 C54.839875,58.125 64,46.1328125 64,32 C64,14.328125 49.671875,0 32,0 L32,0 Z" id="Shape" fill="#222222"></path>
    </g>
</svg>