<?xml version="1.0" encoding="UTF-8" standalone="no"?>
<svg width="32px" height="26px" viewBox="0 0 32 26" version="1.1" xmlns="http://www.w3.org/2000/svg" xmlns:xlink="http://www.w3.org/1999/xlink">
    <!-- Generator: Sketch 39.1 (31720) - http://www.bohemiancoding.com/sketch -->
    <title>Shape</title>
    <desc>Created with Sketch.</desc>
    <defs></defs>
    <g id="Page-1" stroke="none" stroke-width="1" fill="none" fill-rule="evenodd">
        <g id="1480987245_twitter" fill="#55ACEE">
            <path d="M31.993,3.077 C30.816,3.6 29.552,3.953 28.223,4.11 C29.578,3.298 30.619,2.012 31.11,0.48 C29.841,1.231 28.437,1.779 26.942,2.072 C25.744,0.797 24.038,0 22.149,0 C18.524,0 15.587,2.938 15.587,6.563 C15.587,7.077 15.644,7.579 15.756,8.059 C10.301,7.785 5.465,5.172 2.227,1.201 C1.663,2.171 1.339,3.298 1.339,4.501 C1.339,6.779 2.498,8.787 4.258,9.965 C3.183,9.93 2.171,9.636 1.286,9.144 C1.285,9.171 1.285,9.2 1.285,9.226 C1.285,12.407 3.547,15.06 6.55,15.663 C6,15.812 5.42,15.893 4.821,15.893 C4.397,15.893 3.987,15.852 3.587,15.776 C4.421,18.382 6.846,20.28 9.717,20.334 C7.472,22.094 4.642,23.145 1.567,23.145 C1.037,23.145 0.514,23.114 0.001,23.053 C2.905,24.913 6.355,26 10.062,26 C22.134,26 28.737,15.999 28.737,7.325 C28.737,7.041 28.729,6.757 28.717,6.475 C30,5.55 31.112,4.395 31.993,3.077 L31.993,3.077 Z" id="Shape"></path>
        </g>
    </g>
</svg>