<?xml version="1.0" encoding="UTF-8" standalone="no"?>
<svg width="169px" height="170px" viewBox="0 0 169 170" version="1.1" xmlns="http://www.w3.org/2000/svg" xmlns:xlink="http://www.w3.org/1999/xlink">
    <!-- Generator: Sketch 39.1 (31720) - http://www.bohemiancoding.com/sketch -->
    <title>Group 4</title>
    <desc>Created with Sketch.</desc>
    <defs></defs>
    <g id="artworks" stroke="none" stroke-width="1" fill="none" fill-rule="evenodd">
        <g id="Artboard" transform="translate(-156.000000, -155.000000)">
            <g id="Group-4" transform="translate(156.000000, 155.000000)">
                <path d="M141.51683,164.376793 C141.070128,163.357833 140.084393,162.662412 138.989042,161.889553 C137.353941,160.736217 135.500772,159.42917 135.500772,156.78401 C135.500772,154.13876 137.353941,152.831713 138.988863,151.678556 C140.481123,150.625667 141.769645,149.716553 141.769645,147.937804 C141.769645,146.161204 140.481212,145.252627 138.989221,144.200543 C137.35412,143.047745 135.500772,141.741055 135.500772,139.097775 C135.500772,136.454585 137.353672,135.147627 138.988415,133.99456 C140.481212,132.942029 141.769645,132.033541 141.769645,130.255688 C141.769645,128.479177 140.481212,127.570511 138.989221,126.518427 C137.35412,125.365629 135.500772,124.059029 135.500772,121.415749 C135.500772,118.773095 137.354299,117.466764 138.989489,116.314234 C140.084035,115.542897 141.069054,114.84864 141.516024,113.832097 L143.286802,113.832097 C142.808935,115.666977 141.306017,116.726313 139.952747,117.680278 C138.460844,118.731735 137.172412,119.639596 137.172412,121.415749 C137.172412,123.192349 138.460844,124.100926 139.952747,125.15292 C141.588027,126.305808 143.441285,127.612408 143.441285,130.255688 C143.441285,132.899236 141.588295,134.206015 139.953373,135.359082 C138.460844,136.411614 137.172412,137.320101 137.172412,139.097775 C137.172412,140.874465 138.460844,141.782953 139.952747,142.835126 C141.588027,143.987924 143.441285,145.294524 143.441285,147.937804 C143.441285,150.583054 141.588206,151.890101 139.953194,153.043168 C138.461023,154.096057 137.172412,155.005172 137.172412,156.78401 C137.172412,158.562758 138.461023,159.471873 139.953015,160.524583 C141.306644,161.479354 142.809651,162.539495 143.28716,164.376793 L141.51683,164.376793 Z" id="Fill-33" fill="#282D33"></path>
                <path d="M23.5227451,88.859171 C17.2396331,88.859171 11.3325638,86.4133806 6.88972405,81.9721044 C2.44679479,77.5310072 -3.582213e-05,71.6261063 -3.582213e-05,65.3452949 C-3.582213e-05,59.0643939 2.44679479,53.159493 6.88972405,48.7181272 C11.3325638,44.276851 17.2396331,41.830971 23.5227451,41.830971 C29.8057677,41.830971 35.7126579,44.276851 40.1552289,48.7181272 C44.5978895,53.1594034 47.0444515,59.0643044 47.0444515,65.3452949 C47.0444515,71.6261958 44.5978895,77.5310968 40.1552289,81.9721939 C35.7126579,86.4133806 29.8057677,88.859171 23.5227451,88.859171" id="Fill-37" fill="#FD4741"></path>
                <path d="M10.144281,169.069622 C7.73112321,169.069622 5.76789135,167.106544 5.76789135,164.693698 C5.76789135,162.28121 7.73112321,160.31849 10.144281,160.31849 C12.5579762,160.31849 14.5215662,162.28121 14.5215662,164.693698 C14.5215662,167.106544 12.5579762,169.069622 10.144281,169.069622" id="Fill-39" fill="#FD4741"></path>
                <polygon id="Fill-49" fill="#FFFFFF" points="85.0530213 27.8077467 86.7247506 27.8077467 86.7247506 13.2525181 85.0530213 13.2525181"></polygon>
                <polygon id="Fill-50" fill="#FFFFFF" points="44.5566582 25.2247968 46.0042305 24.389271 53.2854367 36.9956558 51.8378644 37.8311815"></polygon>
                <polygon id="Fill-51" fill="#FFFFFF" points="15.475008 55.8359057 16.3108279 54.3889324 28.9195013 61.6655171 28.083771 63.1124905"></polygon>
                <polygon id="Fill-52" fill="#FFFFFF" points="5.59846163 96.8786781 20.1588143 96.8786781 20.1588143 95.2076267 5.59846163 95.2076267"></polygon>
                <polygon id="Fill-53" fill="#FFFFFF" points="16.7381859 135.914864 29.3499938 128.636578 30.1857241 130.083551 17.5740058 137.361748"></polygon>
                <polygon id="Fill-54" fill="#FFFFFF" points="46.7483189 165.599786 54.02854 152.993402 55.4760227 153.828927 48.195712 166.435222"></polygon>
                <polygon id="Fill-55" fill="#FFFFFF" points="121.025193 152.562013 122.473302 151.726846 129.751911 164.334036 128.303802 165.169204"></polygon>
                <polygon id="Fill-56" fill="#FFFFFF" points="145.390188 127.891991 146.226545 126.444749 158.835577 133.724556 157.999219 135.171798"></polygon>
                <polygon id="Fill-57" fill="#FFFFFF" points="154.152299 94.3501676 168.709696 94.3501676 168.709696 92.6790267 154.152299 92.6790267"></polygon>
                <polygon id="Fill-58" fill="#FFFFFF" points="144.123553 59.4735088 156.735182 52.1975507 157.570643 53.6451507 144.959015 60.9211983"></polygon>
                <polygon id="Fill-59" fill="#FFFFFF" points="118.832135 35.7272288 126.113968 23.1241564 127.561719 23.9602192 120.279886 36.5632916"></polygon>
                <path d="M82.6258033,133.437749 C64.2427816,133.437749 49.2105619,118.818242 48.5481212,100.598088 L50.2210147,100.598088 C50.8826494,117.896416 65.1647537,131.766608 82.6258033,131.766608 C89.2754654,131.766608 95.6831489,129.74901 101.156054,125.931804 L101.55162,125.655981 L109.946715,129.578288 L107.041451,120.667625 L107.344237,120.311678 C112.321543,114.461924 115.062653,107.015692 115.062653,99.3447547 C115.062653,81.8853737 101.185965,67.6047147 83.8795779,66.9431337 L83.8795779,65.271008 C102.108117,65.9333051 116.734382,80.9638156 116.734382,99.3447547 C116.734382,106.996802 114.10862,114.515101 109.340784,120.514718 L108.921575,121.042193 L112.730543,132.723349 L101.721148,127.579669 L101.137874,127.957907 C95.6090867,131.542888 89.2077615,133.437749 82.6258033,133.437749" id="Fill-67" fill="#FFFFFF"></path>
                <path d="M72.8919991,66.657705 C73.5212149,66.4708688 74.1572368,66.3018478 74.7969305,66.1515373 L75.1187028,67.7925088 C74.5515489,67.9269735 73.9870817,68.0770154 73.4278086,68.2418288 L72.8919991,66.657705 Z M64.7438078,70.3056211 C65.3024539,69.961223 65.8716676,69.6324916 66.4487621,69.3207697 L67.1887578,70.8207411 C66.6766804,71.098444 66.1709615,71.3904707 65.6737503,71.6957469 L64.7438078,70.3056211 Z M57.8209125,75.9457107 C58.2711071,75.4688173 58.7360783,75.0037411 59.21305,74.5529888 L60.3169985,75.8092764 C59.8934018,76.2110592 59.4799249,76.6246592 59.0788066,77.0481069 L57.8209125,75.9457107 Z M52.5897172,83.1842478 C52.9012802,82.6063716 53.2303065,82.036284 53.5747363,81.4772078 L54.9657991,82.406465 C54.6606841,82.9037697 54.3684651,83.4100269 54.0906645,83.9228192 L52.5897172,83.1842478 Z M49.4228618,91.5382516 C49.5729565,90.8977983 49.7417683,90.261105 49.9284016,89.631484 L51.5135309,90.1660307 C51.34857,90.7264497 51.1987439,91.2916135 51.06459,91.859105 L49.4228618,91.5382516 Z" id="Fill-69" fill="#FFFFFF"></path>
                <path d="M65.8315826,110.039305 L100.420088,110.039305 L100.420088,89.5603752 L65.8315826,89.5603752 L65.8315826,110.039305 Z M64.1598534,111.710446 L102.091818,111.710446 L102.091818,87.8893238 L64.1598534,87.8893238 L64.1598534,111.710446 Z" id="Fill-75" fill="#282D33"></path>
                <polygon id="Fill-76" fill="#282D33" points="66.2552868 89.966679 67.340966 88.6957095 83.1269728 102.168864 98.908681 88.695799 99.9943602 89.9667686 83.1267937 104.366226"></polygon>
                <polygon id="Fill-77" fill="#282D33" points="66.2561644 108.779356 76.8432159 99.7414794 77.9289847 101.012449 67.3418436 110.050325"></polygon>
                <polygon id="Fill-78" fill="#282D33" points="88.2017597 100.912102 89.286812 99.6415798 99.9949423 108.779723 98.90989 110.050334"></polygon>
                <polygon id="Fill-41" fill="#FFFFFF" points="15.5170722 12.7194933 17.1888014 12.7194933 17.1888014 11.0483524 15.5170722 11.0483524"></polygon>
                <polygon id="Fill-42" fill="#FFFFFF" points="7.12852333 15.2138594 8.31101185 14.0322347 9.49287349 15.213949 8.31038496 16.3954842"></polygon>
                <polygon id="Fill-43" fill="#FFFFFF" points="4.14354581 24.0890171 5.81527508 24.0890171 5.81527508 22.4178762 4.14354581 22.4178762"></polygon>
                <polygon id="Fill-44" fill="#FFFFFF" points="7.12682178 31.2924789 8.30895208 30.1110331 9.49099282 31.2931055 8.30886252 32.4745512"></polygon>
                <polygon id="Fill-45" fill="#FFFFFF" points="15.5170722 35.458541 17.1888014 35.458541 17.1888014 33.7874 15.5170722 33.7874"></polygon>
                <polygon id="Fill-46" fill="#FFFFFF" points="23.2128479 31.2924789 24.3953364 30.1108541 25.5771981 31.2925684 24.3947991 32.4741931"></polygon>
                <polygon id="Fill-47" fill="#FFFFFF" points="26.8905986 24.0890171 28.5623278 24.0890171 28.5623278 22.4178762 26.8905986 22.4178762"></polygon>
                <polygon id="Fill-48" fill="#FFFFFF" points="23.2127136 15.2133402 24.3948439 14.0318945 25.5768846 15.2139669 24.3947543 16.3954126"></polygon>
                <path d="M46.8288649,6.874072 C45.1921518,6.874072 43.8605537,5.54249486 43.8605537,3.90573105 C43.8605537,2.26905676 45.1921518,0.937479619 46.8288649,0.937479619 C48.4667423,0.937479619 49.7993255,2.26905676 49.7993255,3.90573105 C49.7993255,5.54249486 48.4667423,6.874072 46.8288649,6.874072" id="Fill-40" fill="#FD4741"></path>
            </g>
        </g>
    </g>
</svg>