<?xml version="1.0" encoding="UTF-8" standalone="no"?>
<svg width="96px" height="60px" viewBox="0 0 96 60" version="1.1" xmlns="http://www.w3.org/2000/svg" xmlns:xlink="http://www.w3.org/1999/xlink">
    <!-- Generator: Sketch 39.1 (31720) - http://www.bohemiancoding.com/sketch -->
    <title>Group 14</title>
    <desc>Created with Sketch.</desc>
    <defs></defs>
    <g id="artworks" stroke="none" stroke-width="1" fill="none" fill-rule="evenodd">
        <g id="Artboard" transform="translate(-192.000000, -210.000000)">
            <g id="Group-14" transform="translate(192.000000, 210.000000)">
                <polygon id="Fill-189" fill="#FFFFFF" points="53.2602703 26.9356571 95.0469644 26.9356571 95.0469644 0.857281905 53.2602703 0.857281905"></polygon>
                <polygon id="Fill-190" fill="#282D33" points="52.4784523 2.36129086 53.4569338 1.00706419 74.1534383 15.9476032 94.8520025 1.00697467 95.830484 2.36120133 74.1534383 18.0085309"></polygon>
                <polygon id="Fill-9" fill="#282D33" points="31.284468 22.4881143 53.8216927 22.4881143 53.8216927 20.8169733 31.284468 20.8169733"></polygon>
                <polygon id="Fill-11" fill="#282D33" points="18.1692697 22.4881143 24.0099785 22.4881143 24.0099785 20.8169733 18.1692697 20.8169733"></polygon>
                <polygon id="Fill-12" fill="#282D33" points="13.8441057 11.5101676 36.382405 11.5101676 36.382405 9.83911619 13.8441057 9.83911619"></polygon>
                <polygon id="Fill-13" fill="#282D33" points="0.727832678 11.5101676 6.56755636 11.5101676 6.56755636 9.83911619 0.727832678 9.83911619"></polygon>
                <polygon id="Fill-83" fill="#FFFFFF" points="6.24307055 53.6893821 2.23394728 49.7832792 7.77554128 48.9785497 10.2529998 43.9587707 12.7310852 48.9786392 18.272321 49.7831897 14.2623022 53.6894716 15.2093498 59.2073611 10.2527311 56.6027554 5.29754542 59.2074507"></polygon>
            </g>
        </g>
    </g>
</svg>