<?xml version="1.0" encoding="UTF-8" standalone="no"?>
<svg width="141px" height="135px" viewBox="0 0 141 135" version="1.1" xmlns="http://www.w3.org/2000/svg" xmlns:xlink="http://www.w3.org/1999/xlink">
    <!-- Generator: Sketch 39.1 (31720) - http://www.bohemiancoding.com/sketch -->
    <title>Group 3</title>
    <desc>Created with Sketch.</desc>
    <defs></defs>
    <g id="artworks" stroke="none" stroke-width="1" fill="none" fill-rule="evenodd">
        <g id="Artboard" transform="translate(-162.000000, -165.000000)">
            <g id="Group-3" transform="translate(239.616883, 240.336660) rotate(29.000000) translate(-239.616883, -240.336660) translate(177.616883, 150.836660)">
                <polygon id="Fill-90" fill="#FD4741" points="0.191887705 47.2876693 84.6958453 0.486501718 93.7425452 16.809736 9.23867716 63.6109036"></polygon>
                <polygon id="Fill-91" fill="#282D33" points="11.0525665 65.5124968 12.5148259 64.7025749 40.4437289 115.09499 120.859128 70.5571634 92.9304038 20.1649272 94.3926631 19.3550053 123.131594 71.2093444 39.7914079 117.366657"></polygon>
                <polygon id="Fill-92" fill="#282D33" points="10.8372487 31.8996276 12.2995976 31.0897057 19.9974152 44.9793248 18.5350663 45.7891571"></polygon>
                <polygon id="Fill-93" fill="#282D33" points="64.5383475 2.15805448 66.0006964 1.34813258 73.698514 15.2377516 72.2361651 16.047584"></polygon>
                <polygon id="Fill-94" fill="#282D33" points="30.8830352 67.3380305 33.3056858 65.9959791 34.1156242 67.4569181 31.6929735 68.7989695"></polygon>
                <polygon id="Fill-95" fill="#282D33" points="39.5695525 62.5269135 41.9922032 61.1848621 42.8021415 62.6458011 40.3794909 63.9878526"></polygon>
                <polygon id="Fill-96" fill="#282D33" points="48.2554609 57.7154474 50.678022 56.3741122 51.488229 57.836036 49.0656679 59.1777293"></polygon>
                <polygon id="Fill-97" fill="#282D33" points="56.9419782 52.9046796 59.3655244 51.5624491 60.1756419 53.0242834 57.7521852 54.3665139"></polygon>
                <polygon id="Fill-98" fill="#282D33" points="65.6284866 48.0940819 68.0510477 46.7523886 68.8612547 48.2142229 66.4386936 49.5559162"></polygon>
                <polygon id="Fill-99" fill="#282D33" points="74.3155323 43.2827949 76.7370187 41.9417282 77.5472258 43.4035625 75.1257393 44.7447187"></polygon>
                <polygon id="Fill-100" fill="#282D33" points="83.0010018 38.4721971 85.424548 37.1299667 86.2346655 38.591801 83.8112088 39.9340314"></polygon>
                <polygon id="Fill-101" fill="#282D33" points="35.8331521 76.2698657 38.2558027 74.9278143 39.0657411 76.3887533 36.6430904 77.7308048"></polygon>
                <polygon id="Fill-102" fill="#282D33" points="44.5196694 71.4586592 46.9423201 70.1166078 47.7522584 71.5775469 45.3296078 72.9195983"></polygon>
                <polygon id="Fill-103" fill="#282D33" points="53.2054882 66.646844 55.6279598 65.3055088 56.4384355 66.7681488 54.0159639 68.1095735"></polygon>
                <polygon id="Fill-104" fill="#282D33" points="61.8922652 61.8359061 64.3157219 60.4943023 65.1255707 61.9567632 62.7022036 63.2983671"></polygon>
                <polygon id="Fill-105" fill="#282D33" points="70.5786124 57.0257471 73.0011735 55.6837851 73.8113806 57.1455299 71.3887299 58.4872232"></polygon>
                <polygon id="Fill-106" fill="#282D33" points="79.2655596 52.2146301 81.6871356 50.8735634 82.4973427 52.3353977 80.0757667 53.6765539"></polygon>
                <polygon id="Fill-107" fill="#282D33" points="87.9511187 47.4040324 90.3746649 46.0618019 91.1847824 47.5236362 88.7613257 48.8658667"></polygon>
                <polygon id="Fill-108" fill="#282D33" points="40.7830988 85.1999552 43.2054808 83.85862 44.0159565 85.32126 41.593485 86.6626848"></polygon>
                <polygon id="Fill-109" fill="#282D33" points="49.4696161 80.3887488 51.8919981 79.0474135 52.7024738 80.5101431 50.2800918 81.8514783"></polygon>
                <polygon id="Fill-110" fill="#282D33" points="58.1556051 75.5785897 60.5779871 74.2372545 61.3884628 75.699984 58.9660808 77.0414088"></polygon>
                <polygon id="Fill-111" fill="#282D33" points="66.8423015 70.7682606 69.2658478 69.4260301 70.0756966 70.8869691 67.6522399 72.2291996"></polygon>
                <polygon id="Fill-112" fill="#282D33" points="75.5286398 65.9563558 77.9515591 64.6148415 78.7619452 66.0775711 76.3391155 67.4190853"></polygon>
                <polygon id="Fill-113" fill="#282D33" points="84.2157661 61.1468145 86.6373421 59.8053897 87.44737 61.2666869 85.0257044 62.6079326"></polygon>
                <polygon id="Fill-114" fill="#282D33" points="92.9012356 56.3358676 95.3247818 54.9936371 96.1348993 56.4554714 93.7114426 57.7977019"></polygon>
                <polygon id="Fill-115" fill="#282D33" points="45.7327769 94.1324888 48.1559649 92.7903478 48.9659033 94.2513764 46.5427153 95.5935173"></polygon>
                <polygon id="Fill-116" fill="#282D33" points="54.4198226 89.3212823 56.8424733 87.9792309 57.6524116 89.4401699 55.229761 90.7822213"></polygon>
                <polygon id="Fill-117" fill="#282D33" points="63.1053727 84.5112128 65.5284712 83.1690718 66.3384095 84.6300109 63.9153111 85.9721518"></polygon>
                <polygon id="Fill-118" fill="#282D33" points="71.7924184 79.7000958 74.2159647 78.3578653 75.0258135 79.8188044 72.6022673 81.1610349"></polygon>
                <polygon id="Fill-119" fill="#282D33" points="80.4788462 74.8888088 82.9014969 73.5467573 83.7114353 75.0076964 81.2887846 76.3497478"></polygon>
                <polygon id="Fill-120" fill="#282D33" points="89.1654531 70.0777724 91.5874769 68.7365267 92.3973257 70.1974657 89.9753019 71.5387114"></polygon>
                <polygon id="Fill-121" fill="#282D33" points="97.8514421 65.2676223 100.274988 63.9253918 101.084837 65.3863309 98.6612909 66.7285613"></polygon>
                <path d="M24.867171,175.761891 L38.3913685,167.954162 L24.867171,160.15055 L24.867171,175.761891 Z M23.1955313,157.258305 L41.7318717,167.954609 L23.1955313,178.655301 L23.1955313,157.258305 Z" id="Fill-34" fill="#282D33"></path>
            </g>
        </g>
    </g>
</svg>