<?xml version="1.0" encoding="UTF-8" standalone="no"?>
<svg width="85px" height="152px" viewBox="0 0 85 152" version="1.1" xmlns="http://www.w3.org/2000/svg" xmlns:xlink="http://www.w3.org/1999/xlink">
    <!-- Generator: Sketch 39.1 (31720) - http://www.bohemiancoding.com/sketch -->
    <title>Group 7</title>
    <desc>Created with Sketch.</desc>
    <defs></defs>
    <g id="artworks" stroke="none" stroke-width="1" fill="none" fill-rule="evenodd">
        <g id="Artboard" transform="translate(-201.000000, -177.000000)">
            <g id="Group-7" transform="translate(201.000000, 177.000000)">
                <path d="M17.8257764,93.101525 C8.68047609,93.101525 1.24021963,85.6650507 1.24021963,76.5243116 C1.24021963,67.3825878 8.68047609,59.9452183 17.8257764,59.9452183 C26.9699125,59.9452183 34.4092734,67.3825878 34.4092734,76.5243116 C34.4092734,85.6650507 26.9699125,93.101525 17.8257764,93.101525" id="Fill-134" fill="#FFFFFF"></path>
                <path d="M17.822633,68.4072863 C14.5827004,68.4072863 11.9468185,71.044031 11.9468185,74.2850615 C11.9468185,77.5267187 14.5827004,80.1640006 17.822633,80.1640006 C21.0675807,80.1640006 23.7076717,77.5267187 23.7076717,74.2850615 C23.7076717,71.044031 21.0675807,68.4072863 17.822633,68.4072863 M17.822633,81.835052 C13.6608179,81.835052 10.2750893,78.4481872 10.2750893,74.2850615 C10.2750893,70.1225625 13.6608179,66.7361453 17.822633,66.7361453 C21.9893737,66.7361453 25.3793114,70.1225625 25.3793114,74.2850615 C25.3793114,78.4481872 21.9893737,81.835052 17.822633,81.835052" id="Fill-135" fill="#282D33"></path>
                <path d="M12.7893371,82.5816895 C9.74785915,82.5816895 7.17269576,84.9531752 6.92686639,87.980781 L6.87438697,88.6268743 L7.37168769,89.04316 C10.3026544,91.4962019 14.0142749,92.8472057 17.8226151,92.8472057 C21.6337315,92.8472057 25.3466953,91.4962019 28.277662,89.04316 L28.7748732,88.6270533 L28.7224834,87.9810495 C28.4772809,84.9533543 25.9035504,82.5816895 22.8629679,82.5816895 L12.7893371,82.5816895 Z M17.8226151,94.5183467 C13.2352331,94.5183467 8.8583061,92.77684 5.49845895,89.614501 L5.23570362,89.3673257 L5.23570362,88.4595543 C5.23570362,84.2970552 8.62420848,80.9106381 12.7893371,80.9106381 L22.8629679,80.9106381 C27.0264846,80.9106381 30.4136461,84.2970552 30.4136461,88.4595543 L30.4136461,89.3673257 L30.1510699,89.6142324 C26.7909541,92.77684 22.4126838,94.5183467 17.8226151,94.5183467 L17.8226151,94.5183467 Z" id="Fill-136" fill="#282D33"></path>
                <polygon id="Fill-139" fill="#282D33" points="1.19111644 2.31410476 35.2130951 2.31410476 35.2130951 0.643053333 1.19111644 0.643053333"></polygon>
                <polygon id="Fill-140" fill="#282D33" points="0.527959255 13.8127219 84.7707735 13.8127219 84.7707735 12.1416705 0.527959255 12.1416705"></polygon>
                <polygon id="Fill-141" fill="#282D33" points="0.527959255 25.3123238 84.7707735 25.3123238 84.7707735 23.6411829 0.527959255 23.6411829"></polygon>
                <polygon id="Fill-142" fill="#282D33" points="0.527959255 36.811299 84.7707735 36.811299 84.7707735 35.1402476 0.527959255 35.1402476"></polygon>
                <polygon id="Fill-143" fill="#282D33" points="0.527959255 48.3099162 54.1605841 48.3099162 54.1605841 46.6388648 0.527959255 46.6388648"></polygon>
                <polygon id="Fill-27" fill="#FFFFFF" points="60.0519812 134.23469 61.7237104 134.23469 61.7237104 131.359006 60.0519812 131.359006"></polygon>
                <polygon id="Fill-28" fill="#FFFFFF" points="51.7543937 137.556739 52.5904822 136.10887 55.083792 137.548055 54.2477931 138.995924"></polygon>
                <polygon id="Fill-29" fill="#FFFFFF" points="52.1400726 146.392139 54.633472 144.952954 55.469471 146.400823 52.9761612 147.840008"></polygon>
                <polygon id="Fill-30" fill="#FFFFFF" points="60.8224256 151.922893 62.4940654 151.922893 62.4940654 149.04515 60.8224256 149.04515"></polygon>
                <polygon id="Fill-31" fill="#FFFFFF" points="67.4637411 145.73234 68.2992028 144.28474 70.7933186 145.723477 69.957857 147.171077"></polygon>
                <polygon id="Fill-32" fill="#FFFFFF" points="67.0774442 136.880584 69.5711123 135.440683 70.4072008 136.887029 67.9135328 138.32693"></polygon>
            </g>
        </g>
    </g>
</svg>