<?xml version="1.0" encoding="UTF-8" standalone="no"?>
<svg width="153px" height="141px" viewBox="0 0 153 141" version="1.1" xmlns="http://www.w3.org/2000/svg" xmlns:xlink="http://www.w3.org/1999/xlink">
    <!-- Generator: Sketch 39.1 (31720) - http://www.bohemiancoding.com/sketch -->
    <title>Group 9</title>
    <desc>Created with Sketch.</desc>
    <defs></defs>
    <g id="artworks" stroke="none" stroke-width="1" fill="none" fill-rule="evenodd">
        <g id="Artboard" transform="translate(-164.000000, -170.000000)">
            <g id="Group-9" transform="translate(164.000000, 170.000000)">
                <path d="M87.3406811,103.746233 C82.7207905,103.746233 78.2397107,102.841953 74.021834,101.05855 C69.9472457,99.3355743 66.2876569,96.8689248 63.1446232,93.7269076 C60.0015895,90.5848905 57.533982,86.9264105 55.8105794,82.8531667 C54.0264582,78.6366848 53.1218598,74.1569133 53.1218598,69.538559 C53.1218598,64.9200257 54.0264582,60.4403438 55.8105794,56.2237724 C57.533982,52.1505286 60.0015895,48.4921381 63.1446232,45.350121 C66.2876569,42.2080143 69.9472457,39.7414543 74.021834,38.0185686 C78.2397107,36.2350752 82.7207905,35.3307952 87.3406811,35.3307952 C91.9610195,35.3307952 96.4425471,36.2350752 100.660603,38.0185686 C104.73537,39.7414543 108.395317,42.2081038 111.538441,45.350121 C114.681653,48.4921381 117.149261,52.1505286 118.872753,56.2238619 C120.656785,60.4403438 121.561383,64.9200257 121.561383,69.538559 C121.561383,74.1570029 120.656785,78.6366848 118.872753,82.8531667 C117.149261,86.9264105 114.681653,90.5848905 111.538441,93.7269076 C108.395317,96.8689248 104.73537,99.3355743 100.660603,101.05855 C96.4425471,102.841864 91.9610195,103.746233 87.3406811,103.746233 L87.3406811,103.746233 Z" id="Fill-1" fill="#FD4741"></path>
                <path d="M71.0399551,140.393986 C67.0739975,140.393986 63.8474982,137.168623 63.8474982,133.204061 C63.8474982,129.23923 67.0739975,126.013687 71.0399551,126.013687 C75.0059127,126.013687 78.2324119,129.23923 78.2324119,133.204061 C78.2324119,137.168623 75.0059127,140.393986 71.0399551,140.393986" id="Fill-145" fill="#FD4741"></path>
                <polygon id="Fill-161" fill="#282D33" points="63.1526474 114.624137 64.8243766 114.624137 64.8243766 95.3097333 63.1526474 95.3097333"></polygon>
                <polygon id="Fill-162" fill="#282D33" points="63.1526474 88.6486248 64.8243766 88.6486248 64.8243766 83.8830038 63.1526474 83.8830038"></polygon>
                <polygon id="Fill-163" fill="#282D33" points="73.2885191 131.51164 74.9601588 131.51164 74.9601588 112.197236 73.2885191 112.197236"></polygon>
                <polygon id="Fill-164" fill="#282D33" points="73.2885191 105.53568 74.9601588 105.53568 74.9601588 100.769522 73.2885191 100.769522"></polygon>
                <path d="M139.707638,29.4460103 C135.74177,29.4460103 132.515182,26.2206465 132.515182,22.2560846 C132.515182,18.2911646 135.74177,15.0656217 139.707638,15.0656217 C143.673596,15.0656217 146.900095,18.2911646 146.900095,22.2560846 C146.900095,26.2206465 143.673596,29.4460103 139.707638,29.4460103" id="Fill-165" fill="#FD4741"></path>
                <path d="M83.961284,1.67138267 C77.4509701,1.67138267 72.1543099,6.9651941 72.1543099,13.4721427 C72.1543099,19.0053408 81.105902,33.5415008 82.9004116,36.3991903 L83.9606571,38.0877884 L85.0232311,36.4006227 C87.7556536,32.062657 90.2853229,27.6152931 92.1462826,23.8779427 C94.5841577,18.9818855 95.7693328,15.5781008 95.7693328,13.4721427 C95.7693328,6.9651941 90.4722249,1.67138267 83.961284,1.67138267 L83.961284,1.67138267 Z M83.2637376,40.0521198 C78.5165889,32.8667598 70.4825806,19.182777 70.4825806,13.4721427 C70.4825806,6.04372552 76.5290875,0.000241714286 83.961284,0.000241714286 C91.3940178,0.000241714286 97.4409726,6.04372552 97.4409726,13.4721427 C97.4409726,19.1816131 89.4063374,32.8663122 84.6587409,40.0521198 L83.961284,41.1078741 L83.2637376,40.0521198 Z" id="Fill-191" fill="#282D33"></path>
                <path d="M83.961284,16.6607659 C82.5923413,16.6607659 81.4786313,15.5455678 81.4786313,14.1748688 C81.4786313,12.8041697 82.5923413,11.6890611 83.961284,11.6890611 C85.331391,11.6890611 86.4459965,12.8041697 86.4459965,14.1748688 C86.4459965,15.5455678 85.331391,16.6607659 83.961284,16.6607659" id="Fill-192" fill="#FFFFFF"></path>
                <path d="M131.293987,64.0015025 C130.793731,63.9108149 130.289803,63.8360625 129.784174,63.7775139 L129.888775,62.1074472 C130.489333,62.1748587 131.087294,62.2634872 131.679792,62.3729749 L131.293987,64.0015025 Z M121.304359,62.6006339 C121.891842,62.4648263 122.485325,62.3498777 123.082122,62.2561463 L123.259352,63.9198568 C122.757484,64.0005177 122.257765,64.0973825 121.762077,64.2101825 L121.304359,62.6006339 Z M138.835441,66.7659082 C138.394202,66.5116606 137.944545,66.2715577 137.488081,66.0464949 L138.147567,64.5085653 C138.690451,64.7740034 139.224738,65.0592263 139.747562,65.3628015 L138.835441,66.7659082 Z M113.381758,65.9409463 C113.890343,65.6150796 114.41048,65.3072072 114.939752,65.0189406 L115.66721,66.5259844 C115.221314,66.7709215 114.782851,67.0303615 114.353612,67.3033196 L113.381758,65.9409463 Z M145.016012,71.8975025 C144.684389,71.5105806 144.340318,71.1340434 143.98532,70.769592 L145.12124,69.5406987 C145.542956,69.9706815 145.950612,70.4167787 146.342327,70.876752 L145.016012,71.8975025 Z M107.03139,71.7382396 C107.402149,71.2617044 107.79055,70.7977025 108.194534,70.3485615 L109.382307,71.5276796 C109.042892,71.9077082 108.715836,72.2985691 108.402124,72.698651 L107.03139,71.7382396 Z M149.128841,78.7911939 C148.946506,78.3169863 148.748589,77.8481501 148.536074,77.3864758 L150.01723,76.6065444 C150.272015,77.1545196 150.507008,77.7117158 150.721403,78.2755368 L149.128841,78.7911939 Z M102.980802,79.3255615 C103.170391,78.7515349 103.380846,78.1835958 103.611361,77.6248777 L105.125115,78.338472 C104.932571,78.810531 104.755252,79.2883196 104.594052,79.7699577 L102.980802,79.3255615 Z M101.71458,87.8262053 C101.71055,87.6400853 101.708579,87.4542339 101.708579,87.2690091 C101.708579,86.850933 101.718699,86.4328568 101.738849,86.0175558 L103.405026,86.181832 C103.388548,86.5443139 103.380309,86.9074225 103.380309,87.2690091 C103.380309,87.4157387 103.381562,87.5623787 103.384249,87.7084815 L101.71458,87.8262053 Z M150.5328,90.0432625 C150.640087,89.1263596 150.694268,88.1975501 150.694268,87.2690091 C150.693551,86.5564891 150.661759,85.845312 150.599339,85.1429082 L152.25674,84.907192 C152.328653,85.6890034 152.365281,86.479051 152.365908,87.2680244 C152.365908,88.2900282 152.304473,89.3141806 152.182857,90.3258891 L150.5328,90.0432625 Z M103.354427,96.2655253 C103.139853,95.7007196 102.945338,95.1279463 102.771959,94.5499806 L104.397209,94.1505253 C104.544797,94.6362815 104.708325,95.1180091 104.887346,95.5940968 L103.354427,96.2655253 Z M148.253706,97.7411463 C148.479296,97.285291 148.690288,96.8213787 148.885967,96.3516472 L150.463663,96.9114396 C150.233237,97.4698891 149.982572,98.0209082 149.712742,98.5619006 L148.253706,97.7411463 Z M107.732697,103.661982 C107.341788,103.202099 106.966641,102.727802 106.609405,102.241598 L108.005214,101.318876 C108.308359,101.728179 108.624579,102.127992 108.952799,102.516704 L107.732697,103.661982 Z M143.521782,104.23216 C143.887078,103.877377 144.24109,103.510687 144.582654,103.133613 L145.881027,104.18892 C145.477312,104.637882 145.057118,105.072878 144.622506,105.492118 L143.521782,104.23216 Z M114.330417,109.177544 C113.807862,108.873969 113.295695,108.551594 112.796156,108.211493 L113.805623,106.876872 C114.227966,107.162005 114.659444,107.4338 115.098713,107.691002 L114.330417,109.177544 Z M136.899434,108.771196 C137.361002,108.559293 137.816122,108.332261 138.262824,108.091083 L139.13572,109.518809 C138.605642,109.807434 138.064639,110.077259 137.515754,110.326941 L136.899434,108.771196 Z M122.397203,112.164864 C121.802197,112.054661 121.211401,111.92324 120.627858,111.771228 L121.130622,110.175108 C121.62246,110.301337 122.119402,110.411899 122.619569,110.506346 L122.397203,112.164864 Z M129.136152,110.8272 C129.643751,110.782438 130.14956,110.721382 130.651338,110.644571 L130.992992,112.282767 C130.397449,112.376051 129.79707,112.448386 129.195079,112.499325 L129.136152,110.8272 Z" id="Fill-5" fill="#282D33"></path>
                <path d="M26.5304298,31.5368836 C20.4712956,31.5368836 15.5418122,36.4641846 15.5418122,42.5206493 C15.5418122,48.5778303 20.4712956,53.5055789 26.5304298,53.5055789 C32.589564,53.5055789 37.5190474,48.5778303 37.5190474,42.5206493 C37.5190474,36.4641846 32.589564,31.5368836 26.5304298,31.5368836 M26.5304298,55.1766303 C19.5495026,55.1766303 13.8700829,49.4992093 13.8700829,42.5206493 C13.8700829,35.5428055 19.5495026,29.8658322 26.5304298,29.8658322 C33.511357,29.8658322 39.1907766,35.5428055 39.1907766,42.5206493 C39.1907766,49.4992093 33.511357,55.1766303 26.5304298,55.1766303" id="Fill-7" fill="#FFFFFF"></path>
                <g id="Group-10" transform="translate(0.000000, 99.000000)">
                    <path d="M7.09438968,34.3318381 L7.09438968,31.8251714 C7.98501739,31.8251714 8.70969909,31.101461 8.70969909,30.2119524 C8.70969909,29.3224438 7.98501739,28.5987333 7.09438968,28.5987333 L7.09438968,26.0920667 C9.36775162,26.0920667 11.2172482,27.9401962 11.2172482,30.2119524 C11.2172482,32.483619 9.36775162,34.3318381 7.09438968,34.3318381" id="Fill-86" fill="#FD4741"></path>
                    <path d="M7.09430012,25.4188029 C4.45071646,25.4188029 2.30004532,27.5689857 2.30004532,30.2119076 C2.30004532,32.8546505 4.45071646,35.0045648 7.09430012,35.0045648 C9.739048,35.0045648 11.8907043,32.8546505 11.8907043,30.2119076 C11.8907043,27.5689857 9.739048,25.4188029 7.09430012,25.4188029 M7.09430012,36.6756162 C3.5289235,36.6756162 0.62831605,33.7760295 0.62831605,30.2119076 C0.62831605,26.6476067 3.5289235,23.7477514 7.09430012,23.7477514 C10.6607514,23.7477514 13.562344,26.6476067 13.562344,30.2119076 C13.562344,33.7760295 10.6607514,36.6756162 7.09430012,36.6756162" id="Fill-87" fill="#282D33"></path>
                    <path d="M24.2836747,19.665233 C21.6406284,19.665233 19.490405,21.8154158 19.490405,24.4583377 C19.490405,27.1001853 21.6406284,29.249473 24.2836747,29.249473 C26.9267211,29.249473 29.0769444,27.1001853 29.0769444,24.4583377 C29.0769444,21.8154158 26.9267211,19.665233 24.2836747,19.665233 M24.2836747,30.9205244 C20.7188354,30.9205244 17.8187653,28.0215644 17.8187653,24.4583377 C17.8187653,20.8939472 20.7188354,17.994092 24.2836747,17.994092 C27.848514,17.994092 30.7485841,20.8939472 30.7485841,24.4583377 C30.7485841,28.0215644 27.848514,30.9205244 24.2836747,30.9205244" id="Fill-88" fill="#282D33"></path>
                    <polygon id="Fill-89" fill="#282D33" points="11.8640884 29.5797352 11.8640884 7.73592571 30.7445004 0.866584762 30.7445004 23.3192457 29.0728607 23.3192457 29.0728607 3.25346857 13.5358177 8.9060019 13.5358177 29.5797352"></polygon>
                </g>
            </g>
        </g>
    </g>
</svg>