<?xml version="1.0" encoding="UTF-8" standalone="no"?>
<svg width="91px" height="90px" viewBox="0 0 91 90" version="1.1" xmlns="http://www.w3.org/2000/svg" xmlns:xlink="http://www.w3.org/1999/xlink">
    <!-- Generator: Sketch 39.1 (31720) - http://www.bohemiancoding.com/sketch -->
    <title>Group 8</title>
    <desc>Created with Sketch.</desc>
    <defs></defs>
    <g id="artworks" stroke="none" stroke-width="1" fill="none" fill-rule="evenodd">
        <g id="Artboard" transform="translate(-195.000000, -195.000000)">
            <g id="Group-8" transform="translate(195.000000, 195.000000)">
                <path d="M45.552054,89.9573343 C39.48683,89.9573343 33.6039406,88.7702486 28.0666453,86.429201 C22.7175057,84.1676505 17.9134893,80.9297533 13.787765,76.8055705 C9.66195117,72.6812086 6.42291415,67.8788829 4.16065706,62.5317152 C1.81869574,56.9964581 0.63119212,51.1157286 0.63119212,45.0527286 C0.63119212,38.9901762 1.81869574,33.1096257 4.16065706,27.5744581 C6.42291415,22.2274695 9.66195117,17.4251438 13.787765,13.3007819 C17.9134893,9.17650952 22.7175952,5.93852286 28.0666453,3.67697238 C33.6039406,1.33574571 39.48683,0.14866 45.552054,0.14866 C51.616472,0.14866 57.4989135,1.33574571 63.0360298,3.67697238 C68.3849007,5.93852286 73.1890066,9.17650952 77.3148205,13.3007819 C81.4407239,17.4252333 84.6798504,22.227559 86.9423762,27.5745476 C89.2844271,33.1097152 90.4720202,38.9902657 90.4720202,45.0527286 C90.4720202,51.115639 89.2844271,56.9963686 86.9423762,62.5317152 C84.6798504,67.8787933 81.4407239,72.681119 77.3148205,76.8055705 C73.1890962,80.9297533 68.3849903,84.1676505 63.0360298,86.429201 C57.4990031,88.7702486 51.6165615,89.9573343 45.552054,89.9573343" id="Fill-144" fill="#FD4741"></path>
                <polygon id="Fill-146" fill="#282D33" points="44.716655 16.050461 46.3883843 16.050461 46.3883843 11.2817067 44.716655 11.2817067"></polygon>
                <polygon id="Fill-147" fill="#282D33" points="59.3357022 19.5185328 61.722083 15.3879042 63.1687597 16.2231613 60.7822894 20.3537899"></polygon>
                <polygon id="Fill-148" fill="#282D33" points="70.2601355 29.8268861 74.3908749 27.4436728 75.227053 28.8916309 71.096224 31.2747547"></polygon>
                <polygon id="Fill-149" fill="#282D33" points="74.5651764 45.8884781 79.3356095 45.8884781 79.3356095 44.2173371 74.5651764 44.2173371"></polygon>
                <polygon id="Fill-150" fill="#282D33" points="70.260225 60.2763419 71.0957762 58.8301743 75.2279485 61.2158048 74.3923973 62.6618829"></polygon>
                <polygon id="Fill-151" fill="#282D33" points="59.3358724 70.5891535 60.7824595 69.7538964 63.1685716 73.882645 61.7219845 74.7179021"></polygon>
                <polygon id="Fill-152" fill="#282D33" points="44.7168431 78.8250844 44.7175595 74.0553453 46.3891992 74.0553453 46.3885723 78.8250844"></polygon>
                <polygon id="Fill-153" fill="#282D33" points="27.9365035 73.8827345 30.3226156 69.7538964 31.7692028 70.5891535 29.3830011 74.7179021"></polygon>
                <polygon id="Fill-154" fill="#282D33" points="15.8769654 61.2151154 20.008869 58.8310964 20.844868 60.278965 16.7130539 62.662984"></polygon>
                <polygon id="Fill-155" fill="#282D33" points="11.7695193 45.8884781 16.5399524 45.8884781 16.5399524 44.2173371 11.7695193 44.2173371"></polygon>
                <polygon id="Fill-156" fill="#282D33" points="15.8769654 28.8911653 16.7125166 27.4450872 20.8428082 29.8303596 20.007257 31.2765272"></polygon>
                <polygon id="Fill-157" fill="#282D33" points="27.9371125 16.2231971 29.3849534 15.3885667 31.7684684 19.5195533 30.3206274 20.3541838"></polygon>
                <path d="M45.5484628,48.074175 C44.803452,48.074175 44.0885319,47.8024703 43.5354382,47.3091046 C42.2958134,46.1999941 42.1844961,44.2905408 43.2854893,43.0467865 L43.2965046,43.0345217 C43.8344634,42.4332798 44.5756233,42.0771541 45.3833228,42.0315865 C45.4450264,42.028095 45.5057449,42.0263046 45.5655679,42.0263046 C46.3129071,42.0263046 47.0061548,42.292996 47.5704429,42.7976417 C48.8117693,43.9094379 48.919773,45.8266798 47.8102721,47.0706131 C47.2382822,47.7070379 46.4126717,48.074175 45.5484628,48.074175" id="Fill-158" fill="#282D33"></path>
                <polygon id="Fill-159" fill="#282D33" points="47.2250907 41.9286789 60.8012303 26.7535874 62.0478405 27.8676217 48.4717009 43.0426236"></polygon>
                <polygon id="Fill-160" fill="#282D33" points="29.967063 32.227852 31.0813104 30.9817701 44.2271366 42.7335606 43.1128893 43.9796425"></polygon>
            </g>
        </g>
    </g>
</svg>