<?xml version="1.0" encoding="UTF-8" standalone="no"?>
<svg width="141px" height="117px" viewBox="0 0 141 117" version="1.1" xmlns="http://www.w3.org/2000/svg" xmlns:xlink="http://www.w3.org/1999/xlink">
    <!-- Generator: Sketch 39.1 (31720) - http://www.bohemiancoding.com/sketch -->
    <title>Group 13</title>
    <desc>Created with Sketch.</desc>
    <defs></defs>
    <g id="artworks" stroke="none" stroke-width="1" fill="none" fill-rule="evenodd">
        <g id="Artboard" transform="translate(-170.000000, -182.000000)">
            <g id="Group-13" transform="translate(170.000000, 182.000000)">
                <path d="M56.7864908,68.6213333 L73.7796139,68.6213333 L73.7796139,51.63428 L56.7864908,51.63428 L56.7864908,68.6213333 Z M55.1148511,70.2924743 L75.4512536,70.2924743 L75.4512536,49.9632286 L55.1148511,49.9632286 L55.1148511,70.2924743 Z" id="Fill-201" fill="#FFFFFF"></path>
                <polygon id="Fill-202" fill="#FD4741" points="42.451728 17.4778133 51.6115363 17.4778133 51.6115363 8.32266095 42.451728 8.32266095"></polygon>
                <polygon id="Fill-203" fill="#FFFFFF" points="23.5644203 57.6005943 32.7211837 57.6005943 32.7211837 48.4460686 23.5644203 48.4460686"></polygon>
                <path d="M2.27380579,30.94488 L30.8495669,30.94488 L30.8495669,2.38221905 L2.27380579,2.38221905 L2.27380579,30.94488 Z M0.602076525,32.6161105 L32.5212066,32.6161105 L32.5212066,0.711257143 L0.602076525,0.711257143 L0.602076525,32.6161105 Z" id="Fill-204" fill="#282D33"></path>
                <polygon id="Fill-205" fill="#282D33" points="1.7336618 30.3036478 30.2078672 1.84232781 31.3895497 3.02350495 2.91534432 31.4849145"></polygon>
                <polygon id="Fill-206" fill="#282D33" points="1.7336618 3.02362133 2.91534432 1.84226514 31.3895497 30.3036747 30.2078672 31.4849413"></polygon>
                <polygon id="Fill-207" fill="#282D33" points="90.7679009 71.2482305 92.4396302 71.2482305 92.4396302 69.5770895 90.7679009 69.5770895"></polygon>
                <path d="M98.9029276,71.2482305 L100.352201,71.2482305 L100.352201,69.5770895 L98.9029276,69.5770895 L98.9029276,71.2482305 Z M106.815588,71.2482305 L108.264862,71.2482305 L108.264862,69.5770895 L106.815588,69.5770895 L106.815588,71.2482305 Z M114.72816,71.2482305 L116.177434,71.2482305 L116.177434,69.5770895 L114.72816,69.5770895 L114.72816,71.2482305 Z" id="Fill-208" fill="#282D33"></path>
                <polygon id="Fill-209" fill="#282D33" points="122.641716 71.2482305 124.313445 71.2482305 124.313445 69.5770895 122.641716 69.5770895"></polygon>
                <path d="M122.641716,79.1590019 L124.313445,79.1590019 L124.313445,77.7102381 L122.641716,77.7102381 L122.641716,79.1590019 Z M122.641716,87.0688781 L124.313445,87.0688781 L124.313445,85.6201143 L122.641716,85.6201143 L122.641716,87.0688781 Z M122.641716,94.9786648 L124.313445,94.9786648 L124.313445,93.5298114 L122.641716,93.5298114 L122.641716,94.9786648 Z" id="Fill-210" fill="#282D33"></path>
                <polygon id="Fill-211" fill="#282D33" points="122.641716 103.110829 124.313445 103.110829 124.313445 101.439688 122.641716 101.439688"></polygon>
                <path d="M98.9029276,103.110829 L100.352201,103.110829 L100.352201,101.439688 L98.9029276,101.439688 L98.9029276,103.110829 Z M106.815588,103.110829 L108.264862,103.110829 L108.264862,101.439688 L106.815588,101.439688 L106.815588,103.110829 Z M114.72816,103.110829 L116.177434,103.110829 L116.177434,101.439688 L114.72816,101.439688 L114.72816,103.110829 Z" id="Fill-212" fill="#282D33"></path>
                <polygon id="Fill-213" fill="#282D33" points="90.7679009 103.110829 92.4396302 103.110829 92.4396302 101.439688 90.7679009 101.439688"></polygon>
                <path d="M90.7679009,79.1590019 L92.4396302,79.1590019 L92.4396302,77.7102381 L90.7679009,77.7102381 L90.7679009,79.1590019 Z M90.7679009,87.0688781 L92.4396302,87.0688781 L92.4396302,85.6201143 L90.7679009,85.6201143 L90.7679009,87.0688781 Z M90.7679009,94.9786648 L92.4396302,94.9786648 L92.4396302,93.5298114 L90.7679009,93.5298114 L90.7679009,94.9786648 Z" id="Fill-214" fill="#282D33"></path>
                <polygon id="Fill-35" fill="#FFFFFF" points="112.202959 84.332753 126.35279 92.494191 140.502711 100.661001 126.352253 108.832465 112.202959 116.997305"></polygon>
            </g>
        </g>
    </g>
</svg>