<?xml version="1.0" encoding="UTF-8" standalone="no"?>
<svg width="113px" height="153px" viewBox="0 0 113 153" version="1.1" xmlns="http://www.w3.org/2000/svg" xmlns:xlink="http://www.w3.org/1999/xlink">
    <!-- Generator: Sketch 39.1 (31720) - http://www.bohemiancoding.com/sketch -->
    <title>Group 15</title>
    <desc>Created with Sketch.</desc>
    <defs></defs>
    <g id="artworks" stroke="none" stroke-width="1" fill="none" fill-rule="evenodd">
        <g id="Artboard" transform="translate(-184.000000, -184.000000)">
            <g id="Group-15" transform="translate(140.000000, 136.000000)">
                <g id="Group" transform="translate(100.675457, 101.035016) rotate(-45.000000) translate(-100.675457, -101.035016) translate(30.175457, 30.035016)" fill="#282D33">
                    <path d="M21.2492446,65.0004986 L26.7038804,70.4524091 L32.1584266,65.0004986 L26.7038804,59.5486777 L21.2492446,65.0004986 Z M18.8858795,65.0004986 L26.7038804,57.184891 L34.5217916,65.0004986 L26.7038804,72.815211 L18.8858795,65.0004986 Z" id="Fill-166"></path>
                    <polygon id="Fill-167" points="84.5212196 26.3505186 85.7029021 25.169252 121.091047 60.5453015 119.909186 61.7266577"></polygon>
                    <polygon id="Fill-168" points="43.2175063 18.8329626 61.2907561 0.765625474 71.7197425 11.1908521 70.5377913 12.3722083 61.2907561 3.12941214 45.58114 18.8329626 122.561107 95.786376 138.270813 80.0821988 133.361927 75.1746826 134.543699 73.9933264 140.634267 80.0821988 122.561107 98.1490883"></polygon>
                    <polygon id="Fill-169" points="96.5161256 94.49632 97.6978081 93.3149638 99.7959103 95.412238 98.6141382 96.5935942"></polygon>
                    <polygon id="Fill-170" points="86.3934901 84.3772468 87.5752622 83.1959801 89.6732748 85.2931649 88.4915027 86.4746106"></polygon>
                    <polygon id="Fill-171" points="76.2719024 74.2589525 77.4538536 73.0770592 79.5506124 75.1731697 78.3688403 76.3545259"></polygon>
                    <polygon id="Fill-172" points="66.1482101 64.1382142 67.3298927 62.9569476 69.4270993 65.0539533 68.2454168 66.2353095"></polygon>
                    <polygon id="Fill-173" points="56.0255746 54.0196693 57.2072572 52.8384026 59.3043742 54.9349607 58.1226917 56.1163169"></polygon>
                    <polygon id="Fill-174" points="45.9018914 43.8996293 47.0836634 42.7182731 49.1829298 44.8168902 48.0010682 45.9982464"></polygon>
                    <polygon id="Fill-175" points="86.2170034 104.79077 87.3986859 103.609504 89.4977732 105.707763 88.3160011 106.889029"></polygon>
                    <polygon id="Fill-176" points="76.0954157 94.6727445 77.2770982 93.4914779 79.3741257 95.5876779 78.1923537 96.769034"></polygon>
                    <polygon id="Fill-177" points="55.8491775 74.4338015 57.0310392 73.2519081 59.1287831 75.3486453 57.947011 76.530091"></polygon>
                    <polygon id="Fill-178" points="45.7264525 64.3149074 46.9084932 63.132835 49.0064163 65.2297512 47.8243755 66.4118236"></polygon>
                    <polygon id="Fill-179" points="35.6029393 54.1944287 36.7847114 53.013162 38.8846047 55.1116001 37.7027431 56.2932249"></polygon>
                    <polygon id="Fill-180" points="75.7718254 115.23332 76.9535975 114.052053 79.0517892 116.150044 77.8701067 117.3314"></polygon>
                    <polygon id="Fill-181" points="65.6493601 105.114157 66.8310426 103.932801 68.9290552 106.029986 67.7473727 107.211431"></polygon>
                    <polygon id="Fill-182" points="55.5267246 94.9961314 56.7084071 93.8147752 58.8054346 95.9110647 57.6236626 97.0923314"></polygon>
                    <polygon id="Fill-183" points="45.4032115 84.8759213 46.584894 83.6946546 48.6827275 85.7911232 47.5009554 86.9723899"></polygon>
                    <polygon id="Fill-184" points="35.2804864 74.7571078 36.4623481 73.5752144 38.560092 75.6720411 37.3783199 76.8533973"></polygon>
                    <polygon id="Fill-185" points="0.0640814891 65.1550615 39.6405502 25.5925205 40.8222327 26.7737872 2.42762565 65.1550615 76.2221096 138.923665 114.616896 100.542391 115.798578 101.723747 76.2221096 141.286288"></polygon>
                    <path d="M114.778239,70.3844247 L120.166335,75.769998 L133.71713,62.2246876 L128.329034,56.8390247 L114.778239,70.3844247 Z M112.414694,70.3844247 L128.329034,54.4754171 L136.080585,62.2246876 L120.166335,78.1333371 L112.414694,70.3844247 Z" id="Fill-186"></path>
                    <path d="M65.6037944,21.2273754 L70.9920696,26.6128592 L84.5427755,13.0676382 L79.1545898,7.68197538 L65.6037944,21.2273754 Z M63.2403398,21.2272859 L79.1545898,5.31827824 L86.9061406,13.0676382 L70.9919801,28.9766459 L63.2403398,21.2272859 Z" id="Fill-187"></path>
                    <path d="M62.0888374,84.9413095 L67.5422194,90.3927723 L72.996676,84.941578 L67.543294,79.4886828 L62.0888374,84.9413095 Z M59.7252932,84.9413095 L67.5432045,77.126239 L75.3601307,84.94122 L67.5423985,92.7554847 L59.7252932,84.9413095 Z" id="Fill-188"></path>
                </g>
                <g id="Group-2" transform="translate(104.020968, 168.424549) rotate(-45.000000) translate(-104.020968, -168.424549) translate(76.020968, 140.424549)">
                    <path d="M8.92515393,32.4963474 C10.1877945,30.9010331 11.4863467,28.8169189 11.7858197,26.7239417 L11.7888646,26.702277 C12.4663506,21.2990674 14.0675998,16.2541322 16.5480137,11.7077551 C18.5502021,8.03826362 20.3456073,6.16846934 20.3628915,6.15128077 C24.2473537,2.26827505 29.4091436,0.129730292 34.8978104,0.129730292 C40.3864772,0.129730292 45.5483566,2.26827505 49.4328189,6.15128077 C53.3164751,10.0334808 55.4550563,15.192917 55.4548772,20.6790255 C55.4546981,26.1655817 53.3153109,31.3257341 49.4307591,35.2089189 C49.4135645,35.2260179 47.5490226,37.0147931 43.8681196,39.0201265 C39.3179926,41.4990408 34.2724456,43.1004427 28.8717221,43.7799284 L28.853005,43.7824351 C26.7553506,44.0785798 24.6610993,45.3695131 23.0577903,46.6239208 L8.92515393,32.4963474 Z" id="Fill-193" fill="#FFFFFF"></path>
                    <polygon id="Fill-194" fill="#282D33" points="11.0860254 34.8099739 23.5502461 16.8733415 24.9229501 17.8261434 12.4587295 35.7628653"></polygon>
                    <polygon id="Fill-195" fill="#282D33" points="19.8108456 43.112609 37.7520013 30.650089 38.7063924 32.0228471 20.7652367 44.4853671"></polygon>
                    <polygon id="Fill-196" fill="#282D33" points="34.5615839 31.5408688 33.4363212 30.4160021 32.8800931 27.3873221 29.856168 26.836124 28.7291142 25.7094669 28.1775429 22.6855316 25.1527222 22.1341545 24.0256685 21.0067811 23.5966985 18.6517678 25.2415611 18.3523107 25.6365897 20.5238897 28.660873 21.0754459 29.7881059 22.2022821 30.3397667 25.224964 33.3637814 25.7765202 34.4902083 26.901924 35.0460782 29.9312307 37.2287206 30.3321183 36.92674 31.9752383"></polygon>
                    <polygon id="Fill-197" fill="#282D33" points="6.32358963 33.2120097 7.50527216 32.0306535 23.5440041 48.0636516 22.362232 49.2450078"></polygon>
                    <polygon id="Fill-198" fill="#282D33" points="1.63724004 37.8967101 2.81901211 36.7153539 18.8576545 52.748352 17.675972 53.9297082"></polygon>
                    <polygon id="Fill-199" fill="#282D33" points="0.0312712458 45.6616741 1.21295377 44.4804074 11.0879509 54.3527351 9.90617879 55.5340017"></polygon>
                    <polygon id="Fill-200" fill="#282D33" points="6.39197408 38.9217756 8.71038235 36.6040937 9.89206488 37.7855394 7.5736566 40.1030423"></polygon>
                </g>
            </g>
        </g>
    </g>
</svg>