<?xml version="1.0" encoding="UTF-8" standalone="no"?>
<svg width="109px" height="92px" viewBox="0 0 109 92" version="1.1" xmlns="http://www.w3.org/2000/svg" xmlns:xlink="http://www.w3.org/1999/xlink">
    <!-- Generator: Sketch 39.1 (31720) - http://www.bohemiancoding.com/sketch -->
    <title>Group 11</title>
    <desc>Created with Sketch.</desc>
    <defs></defs>
    <g id="artworks" stroke="none" stroke-width="1" fill="none" fill-rule="evenodd">
        <g id="Artboard" transform="translate(-186.000000, -195.000000)">
            <g id="Group-11" transform="translate(186.000000, 194.000000)">
                <path d="M41.4809595,67.4002234 L40.9311793,66.753772 C38.5505301,63.954452 36.6932422,60.8063472 35.410989,57.3969225 C34.0818984,53.8632387 33.4079946,50.1401225 33.4079946,46.3309739 C33.4079946,37.8931758 36.6949437,29.9614558 42.6631793,23.9966634 C48.6311462,18.0323187 56.5664645,14.7476006 65.0075018,14.7476006 C73.4454941,14.7476006 81.3781257,18.0323187 87.3438538,23.9965739 C93.3101191,29.9612768 96.595904,37.8930863 96.595904,46.3309739 C96.595904,54.7669815 93.3101191,62.6980749 87.3438538,68.6631358 C81.3775884,74.6282863 73.4451359,77.913452 65.0075018,77.913452 C58.5263828,77.913452 52.2852722,75.9472406 46.9587901,72.2275263 L46.2745874,71.7497377 L35.623862,78.4963415 L41.4809595,67.4002234 Z" id="Fill-71" fill="#FFFFFF"></path>
                <polygon id="Fill-72" fill="#282D33" points="53.1175546 61.8275364 74.6891041 29.234245 76.0833014 30.1563402 54.5116624 62.7496316"></polygon>
                <path d="M54.1707073,29.9240975 C51.8759417,29.9240975 50.0089818,31.7895051 50.0089818,34.0822994 L50.0089818,40.8998061 C50.0089818,43.1917051 51.8759417,45.0563966 54.1707073,45.0563966 C56.4677119,45.0563966 58.3365524,43.1917051 58.3365524,40.8998061 L58.3365524,34.0822994 C58.3365524,31.7895051 56.4677119,29.9240975 54.1707073,29.9240975 M54.1707073,46.727448 C50.9541487,46.727448 48.3372525,44.1131737 48.3372525,40.8998061 L48.3372525,34.0822994 C48.3372525,30.8680366 50.9541487,28.2530461 54.1707073,28.2530461 C57.3894153,28.2530461 60.0081921,30.8680366 60.0081921,34.0822994 L60.0081921,40.8998061 C60.0081921,44.1131737 57.3894153,46.727448 54.1707073,46.727448" id="Fill-73" fill="#282D33"></path>
                <path d="M75.028089,46.9299509 C72.7321591,46.9299509 70.8644828,48.7958061 70.8644828,51.0891375 L70.8644828,57.9020785 C70.8644828,60.1945147 72.7321591,62.0596537 75.028089,62.0596537 C77.3240188,62.0596537 79.1918743,60.1945147 79.1918743,57.9020785 L79.1918743,51.0891375 C79.1918743,48.7958061 77.3240188,46.9299509 75.028089,46.9299509 M75.028089,63.7307947 C71.8103661,63.7307947 69.1926639,61.1160728 69.1926639,57.9020785 L69.1926639,51.0891375 C69.1926639,47.8743375 71.8103661,45.2588099 75.028089,45.2588099 C78.2458118,45.2588099 80.863514,47.8743375 80.863514,51.0891375 L80.863514,57.9020785 C80.863514,61.1160728 78.2458118,63.7307947 75.028089,63.7307947" id="Fill-74" fill="#282D33"></path>
                <polygon id="Fill-79" fill="#282D33" points="95.9058444 12.7268781 99.1995998 9.43464 100.381372 10.6159962 97.0875269 13.9081448"></polygon>
                <polygon id="Fill-80" fill="#282D33" points="84.5996637 5.20643943 86.5665673 0.987450857 88.0813061 1.69307752 86.1142233 5.9120661"></polygon>
                <polygon id="Fill-81" fill="#282D33" points="103.958131 23.6594451 108.180665 21.6918013 108.886629 23.205828 104.664096 25.1734718"></polygon>
                <polygon id="Fill-82" fill="#282D33" points="95.9058444 12.7268781 99.1995998 9.43464 100.381372 10.6159962 97.0875269 13.9081448"></polygon>
                <path d="M6.79410412,92.1785608 C6.34740215,91.1596008 5.36166668,90.4640903 4.26622594,89.6912312 C2.63121435,88.5376274 0.778045998,87.2302217 0.778045998,84.5857779 C0.778045998,81.9413341 2.63121435,80.6339284 4.26613638,79.4804141 C5.75839677,78.4275246 7.0469188,77.5183208 7.0469188,75.7396617 C7.0469188,73.9631512 5.75875499,73.0545741 4.26721104,72.0024903 C2.63157257,70.8496027 0.778045998,69.5432712 0.778045998,66.8996331 C0.778045998,64.2567112 2.6303188,62.9499322 4.26461394,61.796955 C5.75821766,60.7440655 7.0469188,59.8355779 7.0469188,58.0575455 C7.0469188,56.2815722 5.75875499,55.372995 4.26721104,54.3209112 C2.63157257,53.1680236 0.778045998,51.8616922 0.778045998,49.2180541 C0.778045998,46.5748636 2.63157257,45.2685322 4.26685282,44.1160027 C5.36130846,43.3446655 6.34632749,42.6504979 6.79329812,41.6338655 L8.56416513,41.6338655 C8.08638747,43.4692827 6.58346999,44.5279912 5.23010991,45.4815093 C3.73802862,46.5335036 2.44977526,47.4417227 2.44977526,49.2180541 C2.44977526,50.9950122 3.73856596,51.9034998 5.23082635,52.9554046 C6.86574838,54.1083817 8.71855851,55.4150712 8.71855851,58.0575455 C8.71855851,60.700557 6.86628571,62.0074255 5.23199057,63.1604027 C3.73856596,64.2131131 2.44977526,65.1216903 2.44977526,66.8996331 C2.44977526,68.6761436 3.73793907,69.5847208 5.22948302,70.6368046 C6.86512149,71.7895131 8.71855851,73.0958446 8.71855851,75.7396617 C8.71855851,78.3841055 6.86547971,79.6916008 5.23046813,80.8450255 C3.73838685,81.8978255 2.44977526,82.8070293 2.44977526,84.5857779 C2.44977526,86.3645265 3.73838685,87.2737303 5.23037857,88.3264408 C6.58382821,89.2813912 8.08674569,90.3418008 8.56434424,92.1785608 L6.79410412,92.1785608 Z" id="Fill-128" fill="#282D33"></path>
            </g>
        </g>
    </g>
</svg>